#!OML:ASF I:\Actors\actors\Patient Classification 2\Patient 1\Session 1\actor1.ASF
:FULLY-SPECIFIED
:DEGREES
922
root -0.607663 18.5909 4.33429 24.7813 20.1246 8.12825
lowerback 29.105 -0.51014 10.6472
upperback 5.66879 2.92141 2.66772
thorax -9.24198 1.16003 -4.14528
lowerneck -7.82274 -10.4118 -7.81201
upperneck -8.088 -13.0033 12.3809
head 0.218748 -6.42976 4.50193
rclavicle -4.77083e-014 -1.27222e-014
rhumerus 56.7657 -22.7844 -47.2746
rradius 51.4329
rwrist -15.0354
rhand -2.74504 -55.0195
rfingers 7.12502
rthumb 22.9586 -83.6724
lclavicle -4.77083e-014 -1.27222e-014
lhumerus -26.0241 -24.9401 93.8746
lradius 110.53
lwrist 4.89847
lhand -3.64028 -23.5087
lfingers 7.12502
lthumb 22.0994 5.2484
rfemur -32.7281 -18.1271 10.6944
rtibia 31.11
rfoot -26.1594 -12.0647
rtoes -8.30944
lfemur -43.078 -1.79655 -24.2382
ltibia 29.8578
lfoot -5.50047 -9.07107
ltoes -52.6496
923
root -0.610182 18.5768 4.33903 24.6239 19.608 8.30209
lowerback 28.9837 -0.147122 10.4797
upperback 5.68901 3.30733 2.66301
thorax -9.11465 1.34913 -4.18447
lowerneck -8.21566 -10.7526 -8.00863
upperneck -8.19163 -13.4139 12.4821
head 0.308575 -6.62126 4.51588
rclavicle -5.40694e-014 3.49861e-014
rhumerus 53.4871 -18.3462 -44.5103
rradius 50.3557
rwrist -17.0376
rhand -2.07192 -55.2865
rfingers 7.12502
rthumb 23.6044 -83.8577
lclavicle -5.40694e-014 3.49861e-014
lhumerus -28.3844 -25.3258 95.6591
lradius 108.772
lwrist 5.31957
lhand -3.71491 -24.1383
lfingers 7.12502
lthumb 22.0277 4.6273
rfemur -32.8742 -17.9446 10.3532
rtibia 31.629
rfoot -26.0895 -11.8558
rtoes -8.8682
lfemur -42.8414 -1.85059 -24.3739
ltibia 29.9206
lfoot -5.84744 -8.70076
ltoes -52.7764
924
root -0.615142 18.5676 4.34021 24.453 19.1918 8.35795
lowerback 28.6482 0.0995566 10.5048
upperback 5.80972 3.55601 2.55638
thorax -8.76363 1.4868 -4.38771
lowerneck -8.49204 -10.9564 -8.08096
upperneck -8.3854 -13.6485 12.5699
head 0.328349 -6.73228 4.5279
rclavicle 7.63333e-014 1.59028e-015
rhumerus 49.2476 -13.8091 -44.0549
rradius 51.7101
rwrist -14.3707
rhand -1.90977 -55.1498
rfingers 7.12502
rthumb 23.7599 -83.7009
lclavicle 7.63333e-014 1.59028e-015
lhumerus -30.4219 -25.8484 96.7881
lradius 107.136
lwrist 5.47674
lhand -4.68314 -24.8196
lfingers 7.12502
lthumb 21.0978 4.05255
rfemur -32.9496 -17.7612 10.1745
rtibia 31.9571
rfoot -26.0237 -11.6374
rtoes -8.75975
lfemur -42.6564 -2.19991 -24.2421
ltibia 30.0093
lfoot -6.27168 -7.98362
ltoes -52.8642
925
root -0.61853 18.5647 4.34763 24.2239 18.7356 8.20861
lowerback 28.4875 0.384455 10.4967
upperback 5.76895 3.886 2.508
thorax -8.67972 1.64195 -4.54117
lowerneck -8.61103 -11.082 -8.20378
upperneck -8.29206 -13.8068 12.5288
head 0.39369 -6.80198 4.51283
rclavicle 3.18055e-014 1.43125e-014
rhumerus 45.3494 -8.60786 -41.6563
rradius 52.3
rwrist -12.6541
rhand 0.459895 -55.0501
rfingers 7.12502
rthumb 26.0308 -83.2868
lclavicle 3.18055e-014 1.43125e-014
lhumerus -32.6233 -26.3075 97.8309
lradius 105.677
lwrist 5.12015
lhand -5.20749 -25.1754
lfingers 7.12502
lthumb 20.594 3.75212
rfemur -32.9262 -17.4085 10.1772
rtibia 32.0805
rfoot -25.9651 -11.4254
rtoes -8.22165
lfemur -42.4671 -2.40702 -23.9365
ltibia 30.1131
lfoot -6.76692 -7.31269
ltoes -53.0215
926
root -0.615548 18.5654 4.35905 24.0569 18.2612 7.96689
lowerback 28.2015 0.709883 10.4093
upperback 5.71868 4.23315 2.49256
thorax -8.5502 1.81008 -4.61035
lowerneck -8.86166 -11.1807 -8.20535
upperneck -8.02512 -13.9441 12.3563
head 0.508794 -6.85691 4.43019
rclavicle -1.03368e-013 -4.77083e-015
rhumerus 42.0127 -2.90927 -38.5853
rradius 53.079
rwrist -14.6725
rhand 0.196031 -54.4561
rfingers 7.12502
rthumb 25.7781 -82.7298
lclavicle -1.03368e-013 -4.77083e-015
lhumerus -34.6918 -26.7945 98.7052
lradius 104.449
lwrist 4.74348
lhand -5.14552 -25.3142
lfingers 7.12502
lthumb 20.6536 3.60689
rfemur -32.9047 -17.0363 10.2671
rtibia 32.014
rfoot -25.809 -11.2212
rtoes -7.59365
lfemur -42.3464 -2.53743 -23.5853
ltibia 30.2088
lfoot -7.30366 -6.67588
ltoes -53.3792
927
root -0.611763 18.5708 4.3739 23.8534 17.8659 7.63498
lowerback 27.9406 0.995025 10.3651
upperback 5.68594 4.5466 2.49007
thorax -8.41535 1.96327 -4.67606
lowerneck -9.13709 -11.2565 -8.06597
upperneck -7.79312 -14.0588 12.1134
head 0.599174 -6.90434 4.30847
rclavicle -1.90833e-014 1.59028e-014
rhumerus 39.203 1.83974 -38.453
rradius 54.1277
rwrist -16.3904
rhand -0.558859 -55.2417
rfingers 7.12502
rthumb 25.055 -83.6183
lclavicle -1.90833e-014 1.59028e-014
lhumerus -36.5823 -27.3464 99.3655
lradius 103.464
lwrist 4.57274
lhand -5.0342 -25.2369
lfingers 7.12502
lthumb 20.7606 3.67257
rfemur -32.7518 -16.6976 10.4699
rtibia 31.7713
rfoot -25.6543 -11.0568
rtoes -7.07259
lfemur -42.1854 -2.76102 -23.0974
ltibia 30.3001
lfoot -7.89054 -5.92528
ltoes -53.7235
928
root -0.611125 18.5804 4.39355 23.5807 17.5326 7.1824
lowerback 27.7324 1.27684 10.3407
upperback 5.6678 4.87518 2.55329
thorax -8.29264 2.12369 -4.68391
lowerneck -9.39267 -11.3454 -8.08978
upperneck -7.55746 -14.1751 12.0697
head 0.71638 -6.94921 4.26815
rclavicle 3.02153e-014 4.13472e-014
rhumerus 36.3225 4.63774 -41.4275
rradius 54.7689
rwrist -12.5417
rhand 5.77672 -54.6183
rfingers 7.12502
rthumb 31.1105 -81.9987
lclavicle 3.02153e-014 4.13472e-014
lhumerus -38.2986 -27.8952 99.9575
lradius 102.624
lwrist 4.49303
lhand -5.14481 -24.9815
lfingers 7.12502
lthumb 20.6543 3.9395
rfemur -32.4529 -16.3165 10.8263
rtibia 31.361
rfoot -25.5065 -11.0715
rtoes -7.38351
lfemur -41.9534 -2.90799 -22.5062
ltibia 30.3457
lfoot -8.45369 -5.20682
ltoes -54.0628
929
root -0.610156 18.5887 4.41159 23.3624 17.222 6.71227
lowerback 27.5048 1.56062 10.3018
upperback 5.63187 5.20054 2.60421
thorax -8.18163 2.2819 -4.69373
lowerneck -9.69463 -11.4501 -8.27151
upperneck -7.21538 -14.2984 12.3256
head 0.91089 -6.98899 4.32918
rclavicle 3.33958e-014 -4.77083e-014
rhumerus 32.7553 7.75678 -43.6725
rradius 56.0794
rwrist -10.9048
rhand 8.9335 -53.8462
rfingers 7.12502
rthumb 34.1141 -80.6046
lclavicle 3.33958e-014 -4.77083e-014
lhumerus -39.8719 -28.5087 100.465
lradius 101.932
lwrist 4.70505
lhand -5.59228 -25.0062
lfingers 7.12502
lthumb 20.2243 3.96098
rfemur -32.1589 -15.9663 11.2304
rtibia 30.8082
rfoot -25.2214 -11.2028
rtoes -8.16142
lfemur -41.7864 -3.0097 -21.9303
ltibia 30.3612
lfoot -8.90275 -4.49524
ltoes -54.3846
930
root -0.617099 18.6044 4.4417 23.0197 17.1999 6.33555
lowerback 27.4064 1.74099 10.1834
upperback 5.60178 5.39664 2.6993
thorax -8.16108 2.37711 -4.57697
lowerneck -10.029 -11.5253 -8.28485
upperneck -6.79736 -14.4038 12.3979
head 1.10339 -7.0211 4.31011
rclavicle 6.04305e-014 -1.59028e-015
rhumerus 29.7863 11.0006 -44.9699
rradius 57.0325
rwrist -10.9272
rhand 7.04094 -53.7768
rfingers 7.12502
rthumb 32.3147 -80.9191
lclavicle 6.04305e-014 -1.59028e-015
lhumerus -41.3229 -29.0977 100.855
lradius 101.724
lwrist 4.23804
lhand -5.55716 -23.9123
lfingers 7.12502
lthumb 20.258 5.0513
rfemur -31.4581 -15.6909 11.5659
rtibia 30.1335
rfoot -25.1335 -11.3542
rtoes -8.78714
lfemur -41.3897 -3.11044 -21.4163
ltibia 30.3377
lfoot -9.20595 -4.10747
ltoes -54.5303
931
root -0.619438 18.6181 4.46583 22.711 17.2125 5.9187
lowerback 27.437 1.86085 10.1633
upperback 5.46091 5.56517 2.75507
thorax -8.32215 2.4415 -4.56339
lowerneck -10.3371 -11.5442 -8.01495
upperneck -6.31741 -14.4701 12.0982
head 1.25315 -7.04156 4.14633
rclavicle 6.04305e-014 -4.45278e-014
rhumerus 26.4268 13.5248 -47.4101
rradius 57.9918
rwrist -9.34789
rhand 6.10704 -53.1655
rfingers 7.12502
rthumb 31.4253 -80.485
lclavicle 6.04305e-014 -4.45278e-014
lhumerus -42.7866 -29.699 101.251
lradius 101.449
lwrist 4.24289
lhand -5.72581 -23.4444
lfingers 7.12502
lthumb 20.0959 5.53628
rfemur -30.7971 -15.544 11.9693
rtibia 29.391
rfoot -25.049 -11.381
rtoes -9.29344
lfemur -41.0604 -3.20934 -20.8682
ltibia 30.2869
lfoot -9.40173 -3.8064
ltoes -54.5707
932
root -0.618763 18.6285 4.48639 22.4658 17.2972 5.51997
lowerback 27.5295 1.91016 10.2165
upperback 5.22479 5.67784 2.77543
thorax -8.61993 2.46569 -4.62148
lowerneck -10.574 -11.5282 -7.80995
upperneck -5.82642 -14.4885 11.8724
head 1.40245 -7.0379 4.02084
rclavicle 8.11041e-014 -5.56597e-014
rhumerus 23.1747 15.0777 -49.8172
rradius 59.357
rwrist -10.5986
rhand 7.92968 -54.1327
rfingers 7.12502
rthumb 33.1602 -81.099
lclavicle 8.11041e-014 -5.56597e-014
lhumerus -44.2216 -30.2505 101.631
lradius 101.136
lwrist 4.39689
lhand -5.85069 -23.3174
lfingers 7.12502
lthumb 19.9759 5.67584
rfemur -30.1975 -15.5761 12.4128
rtibia 28.6182
rfoot -24.9499 -11.3003
rtoes -9.51102
lfemur -40.7903 -3.31407 -20.3544
ltibia 30.1924
lfoot -9.50864 -3.61383
ltoes -54.5895
933
root -0.616929 18.6373 4.50613 22.2579 17.4081 5.19327
lowerback 27.5968 1.93074 10.1887
upperback 4.99458 5.73171 2.82286
thorax -8.91907 2.46497 -4.58425
lowerneck -10.7917 -11.4963 -7.85694
upperneck -5.36373 -14.4587 11.8703
head 1.57413 -7.00407 4.002
rclavicle 7.15625e-014 3.18055e-015
rhumerus 19.5395 16.4761 -53.3816
rradius 60.1872
rwrist -9.46981
rhand 2.93318 -53.9736
rfingers 7.12502
rthumb 28.3967 -81.8395
lclavicle 7.15625e-014 3.18055e-015
lhumerus -45.4557 -30.6125 102.023
lradius 100.779
lwrist 4.39293
lhand -5.82039 -22.9599
lfingers 7.12502
lthumb 20.005 6.03035
rfemur -29.6158 -15.5962 12.7784
rtibia 27.8692
rfoot -24.8386 -11.2776
rtoes -9.52366
lfemur -40.5406 -3.44034 -19.9248
ltibia 30.0997
lfoot -9.65894 -3.43597
ltoes -54.6954
934
root -0.613259 18.6464 4.52381 22.075 17.4885 4.93215
lowerback 27.5272 1.94968 10.1435
upperback 4.87437 5.74832 2.84245
thorax -9.02669 2.46376 -4.54284
lowerneck -11.1382 -11.4865 -8.00217
upperneck -4.94691 -14.4379 12.006
head 1.77192 -6.96786 4.03151
rclavicle 3.81667e-014 2.8625e-014
rhumerus 16.3937 17.5929 -55.8076
rradius 60.9553
rwrist -8.86399
rhand 1.529 -53.6773
rfingers 7.12502
rthumb 27.0541 -81.7593
lclavicle 3.81667e-014 2.8625e-014
lhumerus -46.3203 -30.8969 102.278
lradius 100.409
lwrist 4.30472
lhand -5.80013 -22.545
lfingers 7.12502
lthumb 20.0245 6.44313
rfemur -29.0598 -15.5698 13.0409
rtibia 27.1548
rfoot -24.6975 -11.307
rtoes -9.37982
lfemur -40.3036 -3.51979 -19.6019
ltibia 30.0136
lfoot -9.81768 -3.29163
ltoes -54.8063
935
root -0.60736 18.656 4.5394 21.8647 17.5948 4.66854
lowerback 27.3795 1.94264 10.1297
upperback 4.81804 5.72453 2.85503
thorax -9.02265 2.45257 -4.50592
lowerneck -11.4118 -11.476 -8.06774
upperneck -4.64868 -14.4214 12.1094
head 1.9152 -6.94027 4.04824
rclavicle 1.59028e-015 9.54166e-015
rhumerus 13.3813 17.9387 -58.6199
rradius 61.6505
rwrist -7.48652
rhand 1.88165 -53.5966
rfingers 7.12502
rthumb 27.3914 -81.6258
lclavicle 1.59028e-015 9.54166e-015
lhumerus -46.9867 -31.1064 102.416
lradius 100.139
lwrist 4.26082
lhand -5.72192 -22.2661
lfingers 7.12502
lthumb 20.0997 6.71417
rfemur -28.4911 -15.5932 13.2969
rtibia 26.4725
rfoot -24.555 -11.3418
rtoes -9.27665
lfemur -40.0451 -3.57166 -19.3057
ltibia 29.9301
lfoot -9.88083 -3.22548
ltoes -54.8084
